<svg width="101" height="20" viewBox="0 0 101 20" fill="none" xmlns="http://www.w3.org/2000/svg">
<path d="M72.0777 15.355C71.2783 15.355 70.6274 16.0059 70.6274 16.8053V16.9133C70.6274 17.7127 71.2783 18.3636 72.0777 18.3636C72.8771 18.3636 73.528 17.7127 73.528 16.9133V16.8053C73.528 16.0059 72.8771 15.355 72.0777 15.355Z" fill="#1844AA"/>
<path d="M77.8238 8.24903C78.1682 7.82097 78.5895 7.48338 79.0783 7.24707C79.5658 7.01076 80.1343 6.89058 80.7649 6.89058C81.2942 6.89058 81.7696 6.95675 82.1787 7.08773C82.5825 7.21737 82.9363 7.40101 83.2307 7.63462C83.525 7.86959 83.7694 8.14371 83.9585 8.45294C84.0895 8.66899 84.1827 8.90666 84.2326 9.15512L84.342 9.70201L86.011 9.69391L86.6606 9.70201L86.6349 9.40494C86.5998 9.00523 86.5323 8.60688 86.4013 8.22743C86.3149 7.97896 86.2109 7.73995 86.0867 7.51309C85.7801 6.95405 85.3737 6.46657 84.8754 6.06416C84.3785 5.66311 83.7708 5.34983 83.07 5.13377C82.3759 4.92041 81.6008 4.81104 80.7663 4.81104C79.8021 4.81104 78.923 4.99468 78.1533 5.35928C77.3863 5.72117 76.7179 6.2154 76.167 6.82711C75.616 7.43882 75.1839 8.16666 74.8841 8.99038C74.5843 9.81139 74.4331 10.7121 74.4331 11.6668C74.4331 12.6215 74.5938 13.5789 74.9111 14.4093C75.2285 15.2412 75.6727 15.969 76.2331 16.5726C76.7935 17.1762 77.4619 17.6569 78.2208 18.0026C78.9824 18.3483 79.8224 18.5239 80.719 18.5239C81.5549 18.5239 82.33 18.4104 83.0254 18.1876C83.7249 17.9635 84.342 17.6434 84.8619 17.2356C85.136 17.0209 85.3831 16.7806 85.6019 16.5159C85.7072 16.3876 85.9165 16.1135 86.1272 15.7327C86.5863 14.9049 86.7092 13.668 86.7092 13.4276H86.0677L84.5945 13.4546L84.5837 13.5357C84.5364 13.88 84.4514 14.2189 84.3001 14.5322C84.0787 14.9886 83.7654 15.3762 83.363 15.6854C82.731 16.1729 81.8749 16.42 80.8203 16.42C80.187 16.42 79.6131 16.3039 79.1161 16.0743C78.6192 15.8448 78.1898 15.5166 77.8373 15.0953C77.4822 14.6713 77.2081 14.1609 77.0217 13.5789C76.8327 12.9901 76.7382 12.3474 76.7382 11.6681C76.7382 10.9889 76.834 10.3718 77.0217 9.78304C77.2081 9.19968 77.4795 8.68385 77.8279 8.24903H77.8238Z" fill="#1844AA"/>
<path d="M100.18 9.03089C99.8873 8.19772 99.4606 7.46043 98.9097 6.84062C98.3574 6.21945 97.6876 5.72117 96.9219 5.35928C96.1522 4.99603 95.2718 4.81104 94.309 4.81104C93.3462 4.81104 92.4874 4.99468 91.7082 5.35793C90.9318 5.71982 90.2593 6.21945 89.707 6.84062C89.1561 7.45908 88.7253 8.19637 88.4242 9.02819C88.1244 9.85731 87.9731 10.7539 87.9731 11.6911C87.9731 12.6822 88.1379 13.6018 88.4647 14.4242C88.7901 15.2466 89.2384 15.969 89.7975 16.5713C90.3579 17.1749 91.0303 17.6556 91.7987 18.0013C92.567 18.347 93.4124 18.5225 94.3077 18.5225C95.2029 18.5225 96.0699 18.347 96.8315 18.0013C97.5904 17.6556 98.2588 17.1749 98.8192 16.5713C99.3782 15.969 99.8225 15.2452 100.141 14.4215C100.459 13.5991 100.619 12.6795 100.619 11.6911C100.619 10.7539 100.472 9.86001 100.182 9.02954L100.18 9.03089ZM98.0562 13.5775C97.8699 14.1609 97.5985 14.6713 97.2514 15.0967C96.9071 15.518 96.479 15.8556 95.9821 16.1013C95.4865 16.3458 94.9234 16.4686 94.309 16.4686C93.6946 16.4686 93.1369 16.3458 92.6494 16.1013C92.1606 15.8569 91.7366 15.5153 91.3922 15.0859C91.0425 14.6511 90.767 14.1379 90.5712 13.56C90.3754 12.9807 90.2755 12.3447 90.2755 11.6668C90.2755 10.9889 90.3754 10.3515 90.5712 9.77358C90.767 9.19563 91.0384 8.68115 91.3814 8.24633C91.7177 7.81827 92.1403 7.47258 92.6386 7.22007C93.1329 6.9689 93.6946 6.84197 94.309 6.84197C94.9234 6.84197 95.4838 6.9689 95.9794 7.22007C96.4777 7.47393 96.9057 7.81962 97.2514 8.24903C97.5998 8.6825 97.8712 9.19833 98.0576 9.78304C98.2466 10.3718 98.3412 11.0065 98.3412 11.6681C98.3412 12.3298 98.2453 12.9888 98.0576 13.5789L98.0562 13.5775Z" fill="#1844AA"/>
<path d="M55.2554 10.7582C56.0764 9.90885 56.0656 8.93929 55.9872 8.28302C55.7401 6.23994 53.8631 4.81396 51.4231 4.81396C49.5839 4.81396 47.8055 5.62958 46.5456 7.05015C45.1358 8.64087 44.5106 10.7636 44.7834 13.0282C45.1642 16.1772 47.7379 18.462 50.9059 18.462C53.003 18.462 54.6126 17.6923 55.6861 16.1731C55.7091 16.1407 55.7266 16.107 55.7428 16.0732L55.9751 15.6587L54.3479 14.3934L53.9658 14.9457C53.2298 15.9422 52.2238 16.4284 50.891 16.4284C48.8884 16.4284 47.3153 15.0132 47.0533 12.9823C48.3659 12.8918 49.6203 12.75 50.7816 12.5623C52.9881 12.1815 54.4519 11.5914 55.2581 10.7569L55.2554 10.7582ZM47.0871 11.2052C47.3842 8.60576 49.1936 6.73147 51.4244 6.73147C52.737 6.73147 53.6633 7.38504 53.7862 8.3951C53.8591 8.99871 53.7241 9.40112 53.3352 9.7387C52.8301 10.1762 51.8741 10.5246 50.4103 10.8055C49.4259 10.9905 48.2349 11.1053 47.0884 11.2052H47.0871Z" fill="#1844AA"/>
<path d="M43.2021 16.4056L42.874 9.02048L42.8483 7.26907C42.8483 7.06652 42.82 6.86937 42.7619 6.68302C42.5053 5.8215 41.6978 5.21924 40.7971 5.21924C40.0058 5.21924 39.2982 5.66215 38.9498 6.37514C38.8661 6.54934 38.8081 6.73163 38.7756 6.92068L38.7162 7.06517L38.7297 7.07867L36.7461 13.5212C36.6583 13.8345 36.5813 14.1194 36.5098 14.3922C36.4719 14.5367 36.4328 14.6866 36.3882 14.8432C36.3504 14.7014 36.3126 14.5529 36.2748 14.3976C36.2073 14.114 36.1236 13.8264 36.0263 13.5455L33.9603 6.8032C33.9373 6.70193 33.9076 6.602 33.8698 6.50612C33.5619 5.72967 32.8219 5.22734 31.9874 5.22734C30.9639 5.22734 30.0996 5.99164 29.9767 7.00576C29.9673 7.08678 29.9619 7.1678 29.9619 7.25152C29.9619 7.27042 29.9619 7.29068 29.9619 7.30959L29.5473 17.363L29.5095 18.2231H31.6741L31.6957 17.4683L32.0846 7.45542L34.6922 16.0747C34.8353 16.5528 35.1878 16.8161 35.6847 16.8161H37.108C37.5981 16.8161 37.9371 16.5514 38.0654 16.072L40.6891 7.40006L40.7553 9.02858L41.0631 16.6473L41.1158 18.2231H43.2899L43.2021 16.4029V16.4056Z" fill="#1844AA"/>
<path d="M68.2062 0H66.7478V7.04479C66.7059 6.97998 66.6614 6.91651 66.6168 6.85304C66.3359 6.45874 65.9848 6.10765 65.5716 5.80787C65.1611 5.51214 64.6912 5.26908 64.1727 5.08813C63.6487 4.90448 63.0748 4.81131 62.4672 4.81131C61.6299 4.81131 60.8535 5.00171 60.1608 5.37846C59.4748 5.75251 58.882 6.26159 58.3972 6.89355C57.9151 7.52147 57.5411 8.26551 57.2845 9.10408C57.0293 9.93725 56.8997 10.8244 56.8997 11.7413C56.8997 12.6582 57.0333 13.5413 57.298 14.3583C57.564 15.1807 57.9421 15.9072 58.4242 16.5175C58.9103 17.1346 59.5085 17.6275 60.204 17.984C60.9021 18.3418 61.6813 18.5228 62.5158 18.5228C63.0033 18.5228 63.4799 18.4566 63.9336 18.3256C64.3874 18.1947 64.8208 18.0002 65.2219 17.7477C65.6229 17.4952 65.9956 17.1724 66.3265 16.7876C66.4453 16.6499 66.5614 16.5027 66.6722 16.3474V18.2257H68.9502V0H68.2048H68.2062ZM66.3886 13.5684C66.2009 14.1787 65.9362 14.7175 65.6013 15.1699C65.2718 15.6141 64.8681 15.972 64.4009 16.2326C63.9418 16.4892 63.4246 16.6188 62.8642 16.6188C62.3038 16.6188 61.823 16.4892 61.3815 16.2353C60.9318 15.976 60.5443 15.6195 60.231 15.1766C59.9123 14.7256 59.6625 14.1949 59.491 13.5994C59.3168 12.9999 59.229 12.3584 59.229 11.6941C59.229 11.0297 59.3168 10.3883 59.491 9.78871C59.6625 9.19456 59.915 8.66522 60.2418 8.2142C60.5645 7.76858 60.9602 7.40804 61.4193 7.13932C61.8703 6.87735 62.3888 6.74366 62.9641 6.74366C63.5393 6.74366 64.0336 6.876 64.4832 7.13932C64.9424 7.40804 65.3394 7.76993 65.6621 8.2142C65.9889 8.66522 66.2414 9.19051 66.4129 9.77791C66.5857 10.3694 66.6749 10.9892 66.6749 11.6198C66.6749 12.299 66.579 12.9553 66.3899 13.5711L66.3886 13.5684Z" fill="#1844AA"/>
<path d="M12.2585 16.6096L9.5389 19.3278C8.78405 20.084 7.55928 20.084 6.80308 19.3278L0.567148 13.0906C0.189049 12.7125 0 12.2182 0 11.7227H8.17099C8.17099 12.2169 8.36004 12.7125 8.73814 13.0906L12.2585 16.6096Z" fill="#577FFF"/>
<path d="M12.2585 6.83615L8.73814 10.3552C8.36004 10.7333 8.17099 11.2275 8.17099 11.7231H0C0 11.2289 0.189049 10.7333 0.567148 10.3552L6.80308 4.11789C7.55928 3.36305 8.78405 3.36305 9.5389 4.11789L12.2585 6.8375V6.83615Z" fill="url(#paint0_linear_1515_174)"/>
<path d="M24.5153 11.7225H16.343C16.343 11.2283 16.1553 10.7327 15.7772 10.3546L12.2582 6.83555L14.9764 4.11594C15.7313 3.36109 16.9561 3.36109 17.7123 4.11594L23.9495 10.3546C24.3276 10.7327 24.5167 11.2269 24.5167 11.7225H24.5153Z" fill="url(#paint1_linear_1515_174)"/>
<path d="M16.3429 11.7227C16.3429 12.2169 16.1552 12.7125 15.7771 13.0906L12.2581 16.6096L8.73768 13.0906C8.35958 12.7125 8.17053 12.2182 8.17053 11.7227H16.3415H16.3429Z" fill="#88AAFF"/>
<defs>
<linearGradient id="paint0_linear_1515_174" x1="10.4288" y1="5.07259" x2="2.24294" y2="12.9978" gradientUnits="userSpaceOnUse">
<stop stop-color="#0D5EFF"/>
<stop offset="1" stop-color="white"/>
</linearGradient>
<linearGradient id="paint1_linear_1515_174" x1="22.6491" y1="4.77761" x2="7.05797" y2="21.2452" gradientUnits="userSpaceOnUse">
<stop stop-color="#0D5EFF"/>
<stop offset="1"/>
</linearGradient>
</defs>
</svg>
